<svg xmlns="http://www.w3.org/2000/svg" width="800" height="600" viewBox="0 0 800 600">
  <defs>
    <linearGradient id="s10" x1="0" y1="0" x2="0" y2="1"><stop offset="0%" stop-color="#7DD3FC"/><stop offset="100%" stop-color="#E0F0FF"/></linearGradient>
    <linearGradient id="b10" x1="0" y1="0" x2="0" y2="1"><stop offset="0%" stop-color="#334155"/><stop offset="100%" stop-color="#1E293B"/></linearGradient>
  </defs>
  <rect width="800" height="600" fill="url(#s10)"/>
  <ellipse cx="150" cy="80" rx="60" ry="25" fill="white" opacity="0.8"/>
  <ellipse cx="650" cy="90" rx="50" ry="20" fill="white" opacity="0.7"/>
  <rect x="225" y="180" width="350" height="320" fill="url(#b10)" rx="4"/>
  <rect x="225" y="180" width="350" height="50" fill="#8B5CF6" rx="4"/>
  <rect x="255" y="240" width="50" height="60" fill="#FDE047" rx="2" opacity="0.9"/>
  <rect x="335" y="240" width="50" height="60" fill="#93C5FD" rx="2" opacity="0.9"/>
  <rect x="415" y="240" width="50" height="60" fill="#FDE047" rx="2" opacity="0.9"/>
  <rect x="495" y="240" width="50" height="60" fill="#93C5FD" rx="2" opacity="0.9"/>
  <rect x="255" y="330" width="50" height="60" fill="#93C5FD" rx="2" opacity="0.9"/>
  <rect x="335" y="330" width="50" height="60" fill="#FDE047" rx="2" opacity="0.9"/>
  <rect x="415" y="330" width="50" height="60" fill="#93C5FD" rx="2" opacity="0.9"/>
  <rect x="495" y="330" width="50" height="60" fill="#FDE047" rx="2" opacity="0.9"/>
  <rect x="255" y="420" width="50" height="60" fill="#FDE047" rx="2" opacity="0.9"/>
  <rect x="335" y="420" width="50" height="60" fill="#FDE047" rx="2" opacity="0.9"/>
  <rect x="415" y="420" width="50" height="60" fill="#93C5FD" rx="2" opacity="0.9"/>
  <rect x="495" y="420" width="50" height="60" fill="#FDE047" rx="2" opacity="0.9"/>
  <rect x="370" y="440" width="60" height="60" fill="#1E293B" rx="4"/>
  <circle cx="400" cy="470" r="4" fill="#FBBF24"/>
  <rect x="0" y="500" width="800" height="100" fill="#4ADE80"/>
  <rect x="0" y="500" width="800" height="10" fill="#22C55E"/>
  <rect x="100" y="420" width="12" height="80" fill="#78350F"/>
  <circle cx="106" cy="400" r="35" fill="#22C55E"/>
  <circle cx="106" cy="380" r="28" fill="#16A34A"/>
  <rect x="680" y="430" width="12" height="70" fill="#78350F"/>
  <circle cx="686" cy="410" r="30" fill="#22C55E"/>
  <circle cx="686" cy="390" r="24" fill="#16A34A"/>
  <circle cx="680" cy="60" r="35" fill="#FBBF24" opacity="0.9"/>
  <circle cx="680" cy="60" r="45" fill="#FBBF24" opacity="0.2"/>
</svg>