<svg xmlns="http://www.w3.org/2000/svg" width="800" height="600" viewBox="0 0 800 600">
  <defs>
    <linearGradient id="s4" x1="0" y1="0" x2="0" y2="1"><stop offset="0%" stop-color="#9CA3AF"/><stop offset="100%" stop-color="#D1D5DB"/></linearGradient>
  </defs>
  <rect width="800" height="600" fill="url(#s4)"/>
  <rect x="100" y="180" width="600" height="320" fill="#6B7280" rx="2"/>
  <rect x="100" y="180" width="600" height="40" fill="#4B5563"/>
  <polygon points="80,180 400,100 720,180" fill="#374151"/>
  <polygon points="80,180 400,100 720,180" fill="#1F2937" opacity="0.3"/>
  <rect x="300" y="280" width="200" height="220" fill="#1F2937" rx="2"/>
  <rect x="305" y="285" width="190" height="210" fill="#9CA3AF" rx="2" opacity="0.3"/>
  <rect x="300" y="280" width="200" height="15" fill="#F59E0B"/>
  <rect x="140" y="400" width="60" height="100" fill="#1F2937" rx="2"/>
  <rect x="600" y="400" width="60" height="100" fill="#1F2937" rx="2"/>
  <rect x="140" y="240" width="40" height="30" fill="#93C5FD" rx="2" opacity="0.6"/>
  <rect x="210" y="240" width="40" height="30" fill="#93C5FD" rx="2" opacity="0.6"/>
  <rect x="550" y="240" width="40" height="30" fill="#93C5FD" rx="2" opacity="0.6"/>
  <rect x="620" y="240" width="40" height="30" fill="#93C5FD" rx="2" opacity="0.6"/>
  <rect x="0" y="500" width="800" height="100" fill="#78716C"/>
  <rect x="0" y="500" width="800" height="8" fill="#57534E"/>
  <rect x="50" y="460" width="80" height="40" fill="#DC2626" rx="4"/>
  <rect x="50" y="460" width="30" height="40" fill="#B91C1C"/>
  <circle cx="70" cy="505" r="10" fill="#1F2937"/>
  <circle cx="110" cy="505" r="10" fill="#1F2937"/>
  <rect x="650" y="455" width="90" height="45" fill="#2563EB" rx="4"/>
  <rect x="650" y="455" width="35" height="45" fill="#1D4ED8"/>
  <circle cx="675" cy="505" r="10" fill="#1F2937"/>
  <circle cx="720" cy="505" r="10" fill="#1F2937"/>
  <circle cx="450" cy="140" r="12" fill="#D1D5DB" opacity="0.5"/>
  <circle cx="460" cy="120" r="15" fill="#D1D5DB" opacity="0.4"/>
  <circle cx="455" cy="95" r="18" fill="#D1D5DB" opacity="0.3"/>
</svg>